# xmcd
#
# Track frame offsets: 
#        150
#        20195
#        35357
#        53120
#        73317
#        90047
#        104707
#        124977
#        145527
#        168395
#        184970
#        205020
#        221010
#        239250
#
# Disc length: 3568 seconds
#
# Revision: 0
# Processed by: cddbd v1.4PL0 Copyright (c) Steve Scherf et al.
# Submitted via: ExactAudioCopy v0.90b4
#
DISCID=cc0dee0e
DTITLE=Various Artist - Blues On The Radio
DYEAR=2000
DGENRE=Blues
TTITLE0=Wait A Minute - Wailin' Walker
TTITLE1=Blame It On The Blues - Powder Blues Band
TTITLE2=I Dig My Job - Boppin' Blues Band
TTITLE3=Blues On The Radio - Cal Batchelor
TTITLE4=Hard Luck Lovin' - Jimmy Dewrance
TTITLE5=Boogie Woogie Blues - Margo
TTITLE6=Crazy At Night - Wailin' Walker
TTITLE7=Right By Me - NiteCry
TTITLE8=Please Mr. Moon - Winston Gibb
TTITLE9=Boogie Woogir Baby - Margo
TTITLE10=Be My Baby - Doc Fingers
TTITLE11=That's What I'll Do - Will McCalder
TTITLE12=If We Can Trust - Georgette Fry
TTITLE13=On The Nickel - Georgette Fry
EXTD=
EXTT0=
EXTT1=
EXTT2=
EXTT3=
EXTT4=
EXTT5=
EXTT6=
EXTT7=
EXTT8=
EXTT9=
EXTT10=
EXTT11=
EXTT12=
EXTT13=
PLAYORDER=
